<?xml version="1.0" standalone="no"?>
<!DOCTYPE svg PUBLIC "-//W3C//DTD SVG 20010904//EN"
 "http://www.w3.org/TR/2001/REC-SVG-20010904/DTD/svg10.dtd">
<svg version="1.0" xmlns="http://www.w3.org/2000/svg"
 width="300.000000pt" height="300.000000pt" viewBox="0 0 300.000000 300.000000"
 preserveAspectRatio="xMidYMid meet">
<metadata>
Created by potrace 1.10, written by Peter Selinger 2001-2011
</metadata>
<g transform="translate(0.000000,300.000000) scale(0.100000,-0.100000)"
fill="#000000" stroke="none">
<path d="M1360 2514 c-83 -17 -210 -80 -276 -136 -156 -132 -237 -306 -236
-507 1 -112 19 -188 67 -286 40 -83 128 -193 179 -224 20 -13 36 -26 36 -31 0
-4 -15 -13 -32 -20 -64 -25 -194 -120 -265 -192 -156 -159 -247 -357 -267
-575 l-6 -73 94 0 93 0 7 67 c11 105 24 150 78 263 45 92 61 115 142 195 103
103 197 158 332 196 110 32 277 32 387 1 280 -79 484 -296 542 -578 8 -40 15
-89 15 -109 l0 -35 96 0 96 0 -7 68 c-24 235 -115 431 -276 591 -71 71 -151
130 -227 166 -34 17 -62 33 -62 36 0 4 18 18 39 32 90 60 201 235 232 367 17
74 15 221 -5 300 -48 189 -172 342 -351 431 -133 66 -281 84 -425 53z m303
-50 c164 -42 314 -165 385 -315 51 -107 62 -157 63 -273 1 -178 -53 -304 -190
-448 -102 -107 -101 -113 17 -181 203 -118 342 -288 418 -513 16 -48 26 -102
27 -147 l2 -72 -45 0 c-50 0 -42 -14 -75 139 -20 93 -85 227 -150 308 -95 121
-254 225 -411 270 -102 29 -294 31 -394 4 -94 -25 -235 -97 -307 -156 -129
-104 -234 -272 -268 -426 -10 -44 -21 -92 -25 -109 -6 -28 -10 -30 -51 -30
l-44 0 1 65 c6 238 213 548 448 667 53 27 96 65 96 85 0 7 -37 51 -83 98 -135
141 -187 264 -187 446 0 174 55 309 175 429 98 98 213 155 360 178 49 8 172
-2 238 -19z"/>
<path d="M1376 2369 c-76 -18 -167 -72 -231 -136 -77 -78 -118 -154 -141 -261
-15 -72 -16 -95 -6 -164 41 -282 300 -480 574 -439 275 42 474 312 429 582
-33 201 -191 374 -381 418 -54 13 -190 12 -244 0z m263 -48 c204 -63 344 -267
328 -476 -13 -174 -108 -314 -266 -393 -74 -37 -76 -37 -200 -37 -125 0 -127
0 -201 37 -138 67 -237 201 -262 353 -37 219 105 447 320 516 78 24 202 25
281 0z"/>
</g>
</svg>
